<?xml version="1.0" encoding="UTF-8"?>
<svg xmlns="http://www.w3.org/2000/svg" xmlns:xlink="http://www.w3.org/1999/xlink" viewBox="0 0 2000 2000">
  <defs>
    <style>
      .cls-1 {
        mix-blend-mode: lighten;
      }

      .cls-2 {
        fill: url(#linear-gradient-15);
      }

      .cls-3 {
        fill: url(#linear-gradient-13);
      }

      .cls-4 {
        fill: url(#linear-gradient-28);
      }

      .cls-5 {
        fill: url(#linear-gradient-53);
      }

      .cls-6 {
        fill: url(#linear-gradient-42);
      }

      .cls-7 {
        fill: url(#linear-gradient-46);
      }

      .cls-8 {
        mask: url(#mask-5);
      }

      .cls-9 {
        fill: url(#_Áåçûìÿííûé_ãðàäèåíò_8-2);
      }

      .cls-9, .cls-10 {
        mix-blend-mode: multiply;
      }

      .cls-11 {
        mask: url(#mask-1);
      }

      .cls-12 {
        fill: url(#linear-gradient-43);
      }

      .cls-13 {
        fill: url(#linear-gradient-25);
      }

      .cls-14 {
        fill: url(#linear-gradient-10);
      }

      .cls-15 {
        fill: url(#linear-gradient-12);
      }

      .cls-16 {
        fill: url(#linear-gradient-40);
      }

      .cls-17 {
        fill: url(#linear-gradient-27);
      }

      .cls-18 {
        fill: url(#linear-gradient-37);
      }

      .cls-19 {
        fill: url(#linear-gradient-55);
      }

      .cls-20 {
        mask: url(#mask);
      }

      .cls-21 {
        fill: url(#linear-gradient-39);
      }

      .cls-22 {
        fill: url(#linear-gradient-52);
      }

      .cls-23 {
        fill: url(#linear-gradient-2);
      }

      .cls-23, .cls-24, .cls-25, .cls-26, .cls-27, .cls-28, .cls-29 {
        mix-blend-mode: screen;
      }

      .cls-30 {
        fill: url(#linear-gradient-47);
      }

      .cls-31 {
        fill: url(#linear-gradient-26);
      }

      .cls-32 {
        fill: none;
      }

      .cls-33 {
        fill: #005fff;
      }

      .cls-34 {
        fill: url(#radial-gradient-5);
      }

      .cls-35 {
        fill: url(#linear-gradient-35);
      }

      .cls-36 {
        fill: url(#linear-gradient-30);
      }

      .cls-37 {
        fill: url(#radial-gradient);
      }

      .cls-38 {
        mask: url(#mask-2);
      }

      .cls-39 {
        filter: url(#luminosity-noclip-3);
      }

      .cls-40 {
        fill: url(#linear-gradient-44);
      }

      .cls-41 {
        fill: url(#linear-gradient-49);
      }

      .cls-42 {
        fill: url(#linear-gradient-34);
      }

      .cls-43 {
        fill: url(#linear-gradient-5);
      }

      .cls-44 {
        fill: url(#linear-gradient-38);
      }

      .cls-45 {
        fill: url(#linear-gradient-22);
      }

      .cls-46 {
        fill: url(#linear-gradient-24);
      }

      .cls-47 {
        fill: #00b6f8;
        mix-blend-mode: overlay;
        opacity: .48;
      }

      .cls-24 {
        fill: url(#linear-gradient-4);
      }

      .cls-48 {
        fill: url(#linear-gradient-54);
      }

      .cls-49 {
        isolation: isolate;
      }

      .cls-50 {
        fill: url(#linear-gradient-33);
      }

      .cls-51 {
        fill: url(#linear-gradient-51);
      }

      .cls-52 {
        fill: url(#linear-gradient-8);
      }

      .cls-25 {
        fill: url(#radial-gradient-3);
      }

      .cls-53 {
        fill: url(#linear-gradient-14);
      }

      .cls-54 {
        fill: url(#linear-gradient-29);
      }

      .cls-55 {
        fill: url(#linear-gradient-20);
      }

      .cls-56 {
        fill: url(#radial-gradient-4);
      }

      .cls-57 {
        fill: url(#linear-gradient-17);
      }

      .cls-58 {
        fill: url(#linear-gradient-50);
      }

      .cls-59 {
        fill: url(#linear-gradient-7);
      }

      .cls-60 {
        fill: url(#linear-gradient-9);
      }

      .cls-61 {
        fill: url(#linear-gradient-11);
      }

      .cls-62 {
        fill: #000068;
      }

      .cls-63 {
        fill: url(#linear-gradient-19);
      }

      .cls-27 {
        fill: url(#linear-gradient-3);
      }

      .cls-64 {
        fill: url(#linear-gradient-6);
      }

      .cls-10 {
        fill: url(#_Áåçûìÿííûé_ãðàäèåíò_8);
      }

      .cls-65 {
        fill: url(#linear-gradient-36);
      }

      .cls-66 {
        fill: url(#linear-gradient-21);
      }

      .cls-67 {
        fill: url(#linear-gradient-45);
      }

      .cls-68 {
        mask: url(#mask-4);
      }

      .cls-69 {
        fill: url(#linear-gradient-48);
      }

      .cls-28 {
        fill: url(#radial-gradient-2);
      }

      .cls-70 {
        fill: url(#linear-gradient-32);
      }

      .cls-71 {
        fill: url(#linear-gradient-41);
      }

      .cls-72 {
        fill: url(#linear-gradient-16);
      }

      .cls-29 {
        fill: url(#linear-gradient);
      }

      .cls-73 {
        fill: url(#linear-gradient-23);
      }

      .cls-74 {
        fill: url(#linear-gradient-31);
      }

      .cls-75 {
        clip-path: url(#clippath);
      }

      .cls-76 {
        fill: url(#linear-gradient-18);
      }

      .cls-77 {
        mask: url(#mask-3);
      }

      .cls-78 {
        filter: url(#luminosity-noclip);
      }
    </style>
    <radialGradient id="radial-gradient" cx="2038.24" cy="236.27" fx="2038.24" fy="236.27" r="300" gradientTransform="translate(-5794.14 212.44) scale(3.33)" gradientUnits="userSpaceOnUse">
      <stop offset="0" stop-color="#000068"/>
      <stop offset="1" stop-color="#000"/>
    </radialGradient>
    <linearGradient id="linear-gradient" x1="1889.75" y1="-2360.21" x2="3412.9" y2="-2360.21" gradientTransform="translate(3093.93 3508.35) rotate(-90)" gradientUnits="userSpaceOnUse">
      <stop offset=".05" stop-color="#000"/>
      <stop offset=".5" stop-color="#fff"/>
      <stop offset=".95" stop-color="#000"/>
    </linearGradient>
    <mask id="mask" x="409.36" y="95.45" width="648.73" height="1523.15" maskUnits="userSpaceOnUse">
      <rect class="cls-29" x="409.36" y="95.45" width="648.73" height="1523.15"/>
    </mask>
    <linearGradient id="linear-gradient-2" x1="2651.32" y1="-2035.84" x2="2651.32" y2="-2684.57" gradientTransform="translate(3093.93 3508.35) rotate(-90)" gradientUnits="userSpaceOnUse">
      <stop offset=".1" stop-color="#000"/>
      <stop offset=".24" stop-color="#000"/>
      <stop offset=".27" stop-color="#000001"/>
      <stop offset=".28" stop-color="#000308"/>
      <stop offset=".28" stop-color="#000714"/>
      <stop offset=".29" stop-color="#000e25"/>
      <stop offset=".29" stop-color="#00163b"/>
      <stop offset=".29" stop-color="#002156"/>
      <stop offset=".3" stop-color="#002d77"/>
      <stop offset=".3" stop-color="#003c9c"/>
      <stop offset=".3" stop-color="#004bc6"/>
      <stop offset=".31" stop-color="#005df3"/>
      <stop offset=".31" stop-color="#005ff8"/>
      <stop offset=".31" stop-color="#005df4"/>
      <stop offset=".35" stop-color="#004ac1"/>
      <stop offset=".4" stop-color="#003894"/>
      <stop offset=".44" stop-color="#00296c"/>
      <stop offset=".49" stop-color="#001c4a"/>
      <stop offset=".55" stop-color="#00122f"/>
      <stop offset=".6" stop-color="#000a1a"/>
      <stop offset=".67" stop-color="#00040b"/>
      <stop offset=".74" stop-color="#000102"/>
      <stop offset=".86" stop-color="#000"/>
      <stop offset="1" stop-color="#000"/>
    </linearGradient>
    <radialGradient id="radial-gradient-2" cx="3010.29" cy="-3084.51" fx="3010.29" fy="-3084.51" r="165.28" gradientTransform="translate(2928.47 15098.1) rotate(-90) scale(4.73 .67)" gradientUnits="userSpaceOnUse">
      <stop offset="0" stop-color="#00a4ff"/>
      <stop offset=".08" stop-color="#007fc6"/>
      <stop offset=".17" stop-color="#005e92"/>
      <stop offset=".26" stop-color="#004165"/>
      <stop offset=".35" stop-color="#002941"/>
      <stop offset=".44" stop-color="#001724"/>
      <stop offset=".53" stop-color="#000a10"/>
      <stop offset=".61" stop-color="#000204"/>
      <stop offset=".7" stop-color="#000"/>
    </radialGradient>
    <linearGradient id="linear-gradient-3" y1="-2410.41" y2="-2410.41" xlink:href="#linear-gradient"/>
    <mask id="mask-1" x="232.7" y="95.45" width="901.65" height="1523.15" maskUnits="userSpaceOnUse">
      <rect class="cls-27" x="232.7" y="95.45" width="901.65" height="1523.15"/>
    </mask>
    <linearGradient id="linear-gradient-4" y1="-1959.58" y2="-2861.23" xlink:href="#linear-gradient-2"/>
    <radialGradient id="radial-gradient-3" cy="-2075.76" fy="-2075.76" r="165.28" gradientTransform="translate(2793.4 15098.1) rotate(-90) scale(4.73 .93)" xlink:href="#radial-gradient-2"/>
    <clipPath id="clippath">
      <rect class="cls-32" x="153.71" width="1692.59" height="1692.59"/>
    </clipPath>
    <linearGradient id="linear-gradient-5" x1="1662.05" y1="1722.71" x2="1662.05" y2="347.19" gradientUnits="userSpaceOnUse">
      <stop offset="0" stop-color="#000a60"/>
      <stop offset="0" stop-color="#000d64"/>
      <stop offset=".06" stop-color="#002892"/>
      <stop offset=".11" stop-color="#0040b7"/>
      <stop offset=".16" stop-color="#0051d4"/>
      <stop offset=".2" stop-color="#005ee9"/>
      <stop offset=".25" stop-color="#0066f5"/>
      <stop offset=".3" stop-color="#0069fa"/>
      <stop offset=".62" stop-color="#009afc"/>
      <stop offset=".86" stop-color="#00b9fe"/>
      <stop offset="1" stop-color="#00c5ff"/>
    </linearGradient>
    <linearGradient id="linear-gradient-6" x1="1613.95" y1="1722.71" x2="1613.95" y2="347.18" xlink:href="#linear-gradient-5"/>
    <linearGradient id="linear-gradient-7" x1="1562.18" y1="1722.71" x2="1562.18" y2="347.05" xlink:href="#linear-gradient-5"/>
    <linearGradient id="linear-gradient-8" x1="1505.09" y1="1722.71" x2="1505.09" y2="347.13" xlink:href="#linear-gradient-5"/>
    <linearGradient id="linear-gradient-9" x1="1444.33" y1="1722.71" x2="1444.33" y2="347.05" xlink:href="#linear-gradient-5"/>
    <linearGradient id="linear-gradient-10" x1="1380.49" y1="1722.71" x2="1380.49" y2="347.08" xlink:href="#linear-gradient-5"/>
    <linearGradient id="linear-gradient-11" x1="1312.41" y1="1722.71" x2="1312.41" y2="347.09" xlink:href="#linear-gradient-5"/>
    <linearGradient id="linear-gradient-12" x1="1237.85" y1="1722.71" x2="1237.85" y2="347.06" xlink:href="#linear-gradient-5"/>
    <linearGradient id="linear-gradient-13" x1="1151.36" y1="1722.71" x2="1151.36" y2="347.04" xlink:href="#linear-gradient-5"/>
    <linearGradient id="linear-gradient-14" x1="807.32" y1="1722.72" x2="807.32" y2="347.04" xlink:href="#linear-gradient-5"/>
    <linearGradient id="linear-gradient-15" x1="803.38" y1="1722.71" x2="803.38" y2="347.08" xlink:href="#linear-gradient-5"/>
    <linearGradient id="linear-gradient-16" x1="809.71" y1="1722.72" x2="809.71" y2="347.02" xlink:href="#linear-gradient-5"/>
    <linearGradient id="linear-gradient-17" x1="838.21" y1="1722.71" x2="838.21" y2="347.07" xlink:href="#linear-gradient-5"/>
    <linearGradient id="linear-gradient-18" x1="884.29" y1="1722.72" x2="884.29" y2="347.02" xlink:href="#linear-gradient-5"/>
    <linearGradient id="linear-gradient-19" x1="938.92" y1="1722.71" x2="938.92" y2="347.06" xlink:href="#linear-gradient-5"/>
    <linearGradient id="linear-gradient-20" x1="992.83" y1="1722.72" x2="992.83" y2="347.03" xlink:href="#linear-gradient-5"/>
    <linearGradient id="linear-gradient-21" x1="1080.61" y1="1722.72" x2="1080.61" y2="347.03" xlink:href="#linear-gradient-5"/>
    <linearGradient id="linear-gradient-22" x1="1087.27" y1="1722.72" x2="1087.27" y2="347.04" xlink:href="#linear-gradient-5"/>
    <linearGradient id="linear-gradient-23" x1="1078.72" y1="1722.72" x2="1078.72" y2="347.04" xlink:href="#linear-gradient-5"/>
    <linearGradient id="linear-gradient-24" x1="1061.56" y1="1722.71" x2="1061.56" y2="347.04" xlink:href="#linear-gradient-5"/>
    <linearGradient id="linear-gradient-25" x1="1070.04" y1="1722.72" x2="1070.04" y2="347.04" xlink:href="#linear-gradient-5"/>
    <linearGradient id="linear-gradient-26" x1="1042.37" y1="1722.71" x2="1042.37" y2="347.04" xlink:href="#linear-gradient-5"/>
    <linearGradient id="linear-gradient-27" x1="1012.74" y1="1722.72" x2="1012.74" y2="347.04" xlink:href="#linear-gradient-5"/>
    <linearGradient id="linear-gradient-28" x1="985.73" y1="1722.72" x2="985.73" y2="347.04" xlink:href="#linear-gradient-5"/>
    <linearGradient id="linear-gradient-29" x1="943.82" y1="1722.72" x2="943.82" y2="347.04" xlink:href="#linear-gradient-5"/>
    <linearGradient id="linear-gradient-30" x1="910.09" y1="1722.72" x2="910.09" y2="347.04" xlink:href="#linear-gradient-5"/>
    <linearGradient id="linear-gradient-31" x1="880" y1="1722.71" x2="880" y2="347.04" xlink:href="#linear-gradient-5"/>
    <linearGradient id="linear-gradient-32" x1="850.45" y1="1722.72" x2="850.45" y2="347.04" xlink:href="#linear-gradient-5"/>
    <linearGradient id="linear-gradient-33" x1="827.56" y1="1722.71" x2="827.56" y2="347.04" xlink:href="#linear-gradient-5"/>
    <linearGradient id="linear-gradient-34" x1="808.06" y1="1722.72" x2="808.06" y2="347.04" xlink:href="#linear-gradient-5"/>
    <linearGradient id="linear-gradient-35" x1="796.25" y1="1722.71" x2="796.25" y2="347.04" xlink:href="#linear-gradient-5"/>
    <linearGradient id="linear-gradient-36" x1="788.62" y1="1722.72" x2="788.62" y2="347.04" xlink:href="#linear-gradient-5"/>
    <linearGradient id="linear-gradient-37" x1="763.32" y1="1722.7" x2="763.32" y2="347.04" xlink:href="#linear-gradient-5"/>
    <linearGradient id="linear-gradient-38" x1="738.69" y1="1722.71" x2="738.69" y2="347.04" xlink:href="#linear-gradient-5"/>
    <linearGradient id="linear-gradient-39" x1="712.34" y1="1722.72" x2="712.34" y2="347.04" xlink:href="#linear-gradient-5"/>
    <linearGradient id="linear-gradient-40" x1="681.02" y1="1722.72" x2="681.02" y2="347.04" xlink:href="#linear-gradient-5"/>
    <linearGradient id="linear-gradient-41" x1="654.47" y1="1722.71" x2="654.47" y2="347.04" xlink:href="#linear-gradient-5"/>
    <linearGradient id="linear-gradient-42" x1="713.67" y1="2070.99" x2="713.67" y2="1280.78" gradientTransform="translate(150.84 -972.32) rotate(8.87)" xlink:href="#linear-gradient-5"/>
    <linearGradient id="linear-gradient-43" x1="1435.86" y1="1274.27" x2="1116.25" y2="992.46" gradientUnits="userSpaceOnUse">
      <stop offset="0" stop-color="#005fff"/>
      <stop offset=".08" stop-color="#0068ff"/>
      <stop offset=".5" stop-color="#009aff"/>
      <stop offset=".82" stop-color="#00b9ff"/>
      <stop offset="1" stop-color="#00c5ff"/>
    </linearGradient>
    <filter id="luminosity-noclip" x="953.92" y="804.22" width="487.1" height="184.77" color-interpolation-filters="sRGB" filterUnits="userSpaceOnUse">
      <feFlood flood-color="#fff" result="bg"/>
      <feBlend in="SourceGraphic" in2="bg"/>
    </filter>
    <filter id="luminosity-noclip-2" x="953.92" y="-9100.95" width="487.1" height="32766" color-interpolation-filters="sRGB" filterUnits="userSpaceOnUse">
      <feFlood flood-color="#fff" result="bg"/>
      <feBlend in="SourceGraphic" in2="bg"/>
    </filter>
    <mask id="mask-3" x="953.92" y="-9100.95" width="487.1" height="32766" maskUnits="userSpaceOnUse"/>
    <radialGradient id="_Áåçûìÿííûé_ãðàäèåíò_8" data-name="Áåçûìÿííûé ãðàäèåíò 8" cx="14260.53" cy="24141.72" fx="14260.53" fy="24141.72" r="1371.75" gradientTransform="translate(4020.63 1603.98) rotate(166.98) scale(.18 .05)" gradientUnits="userSpaceOnUse">
      <stop offset="0" stop-color="#fff"/>
      <stop offset=".09" stop-color="#f3f3f3"/>
      <stop offset=".25" stop-color="#d3d3d3"/>
      <stop offset=".46" stop-color="#9f9f9f"/>
      <stop offset=".71" stop-color="#585858"/>
      <stop offset="1" stop-color="#000"/>
    </radialGradient>
    <mask id="mask-2" x="953.92" y="804.22" width="487.1" height="184.77" maskUnits="userSpaceOnUse">
      <g class="cls-78">
        <g class="cls-77">
          <path class="cls-10" d="M1440.42,840.4c-9.37-40.5-125.85-48.15-260.06-17.11-133.91,30.97-235.2,89-225.84,129.5,9.37,40.51,125.85,48.15,259.76,17.18,134.21-31.04,235.51-89.06,226.14-129.57Z"/>
        </g>
      </g>
    </mask>
    <radialGradient id="radial-gradient-4" cx="14260.53" cy="24141.72" fx="14260.53" fy="24141.72" r="1371.75" gradientTransform="translate(4020.63 1603.98) rotate(166.98) scale(.18 .05)" gradientUnits="userSpaceOnUse">
      <stop offset="0" stop-color="#06f"/>
      <stop offset=".2" stop-color="#0043a8"/>
      <stop offset=".38" stop-color="#002660"/>
      <stop offset=".53" stop-color="#00112c"/>
      <stop offset=".64" stop-color="#00040c"/>
      <stop offset=".7" stop-color="#000"/>
      <stop offset="1" stop-color="#000"/>
    </radialGradient>
    <filter id="luminosity-noclip-3" x="881.27" y="776.67" width="632.38" height="239.88" color-interpolation-filters="sRGB" filterUnits="userSpaceOnUse">
      <feFlood flood-color="#fff" result="bg"/>
      <feBlend in="SourceGraphic" in2="bg"/>
    </filter>
    <filter id="luminosity-noclip-4" x="881.27" y="-9100.95" width="632.38" height="32766" color-interpolation-filters="sRGB" filterUnits="userSpaceOnUse">
      <feFlood flood-color="#fff" result="bg"/>
      <feBlend in="SourceGraphic" in2="bg"/>
    </filter>
    <mask id="mask-5" x="881.27" y="-9100.95" width="632.38" height="32766" maskUnits="userSpaceOnUse"/>
    <radialGradient id="_Áåçûìÿííûé_ãðàäèåíò_8-2" data-name="Áåçûìÿííûé ãðàäèåíò 8" cx="11688.8" cy="18775.47" fx="11688.8" fy="18775.47" r="1371.79" gradientTransform="translate(4185.47 1578.91) rotate(166.98) scale(.24 .07)" xlink:href="#_Áåçûìÿííûé_ãðàäèåíò_8"/>
    <mask id="mask-4" x="881.27" y="776.67" width="632.38" height="239.88" maskUnits="userSpaceOnUse">
      <g class="cls-39">
        <g class="cls-8">
          <path class="cls-9" d="M1512.88,823.64c-12.16-52.58-163.39-62.51-337.63-22.21-173.85,40.21-305.35,115.54-293.19,168.12,12.17,52.59,163.39,62.51,337.24,22.3,174.24-40.3,305.75-115.62,293.58-168.21Z"/>
        </g>
      </g>
    </mask>
    <radialGradient id="radial-gradient-5" cx="11688.8" cy="18775.47" fx="11688.8" fy="18775.47" r="1371.79" gradientTransform="translate(4185.47 1578.91) rotate(166.98) scale(.24 .07)" gradientUnits="userSpaceOnUse">
      <stop offset="0" stop-color="#2caeff"/>
      <stop offset="0" stop-color="#2aa7f5"/>
      <stop offset=".04" stop-color="#2288c7"/>
      <stop offset=".08" stop-color="#1b6a9c"/>
      <stop offset=".11" stop-color="#145177"/>
      <stop offset=".16" stop-color="#0e3b56"/>
      <stop offset=".2" stop-color="#0a283b"/>
      <stop offset=".26" stop-color="#061925"/>
      <stop offset=".32" stop-color="#030d14"/>
      <stop offset=".4" stop-color="#010508"/>
      <stop offset=".51" stop-color="#000101"/>
      <stop offset=".81" stop-color="#000"/>
      <stop offset="1" stop-color="#000"/>
    </radialGradient>
    <linearGradient id="linear-gradient-44" x1="2932.91" y1="1815.76" x2="274.79" y2="1815.76" xlink:href="#linear-gradient-5"/>
    <linearGradient id="linear-gradient-45" x1="2932.91" y1="1839.38" x2="274.79" y2="1839.38" xlink:href="#linear-gradient-5"/>
    <linearGradient id="linear-gradient-46" x1="2932.91" y1="1839.38" x2="274.79" y2="1839.38" xlink:href="#linear-gradient-5"/>
    <linearGradient id="linear-gradient-47" x1="2932.91" y1="1839.38" x2="274.79" y2="1839.38" xlink:href="#linear-gradient-5"/>
    <linearGradient id="linear-gradient-48" x1="2932.91" y1="1815.76" x2="274.79" y2="1815.76" xlink:href="#linear-gradient-5"/>
    <linearGradient id="linear-gradient-49" x1="2932.91" y1="1839.38" x2="274.79" y2="1839.38" xlink:href="#linear-gradient-5"/>
    <linearGradient id="linear-gradient-50" x1="2932.91" y1="1839.38" x2="274.79" y2="1839.38" xlink:href="#linear-gradient-5"/>
    <linearGradient id="linear-gradient-51" x1="2932.91" y1="1838.32" x2="274.79" y2="1838.32" xlink:href="#linear-gradient-5"/>
    <linearGradient id="linear-gradient-52" x1="2932.91" y1="1839.38" x2="274.79" y2="1839.38" xlink:href="#linear-gradient-5"/>
    <linearGradient id="linear-gradient-53" x1="2932.91" y1="1815.76" x2="274.79" y2="1815.76" xlink:href="#linear-gradient-5"/>
    <linearGradient id="linear-gradient-54" x1="2932.91" y1="1815.76" x2="274.79" y2="1815.76" xlink:href="#linear-gradient-5"/>
    <linearGradient id="linear-gradient-55" x1="2669.47" y1="1815.76" x2="589.2" y2="1815.76" xlink:href="#linear-gradient-5"/>
  </defs>
  <g class="cls-49">
    <g id="Layer_2" data-name="Layer 2">
      <g id="Layer_1-2" data-name="Layer 1">
        <g>
          <rect class="cls-37" width="2000" height="2000"/>
          <g>
            <g>
              <g>
                <g class="cls-20">
                  <rect class="cls-23" x="409.36" y="95.45" width="648.73" height="1523.15"/>
                </g>
                <ellipse class="cls-28" cx="859.38" cy="857.03" rx="110.87" ry="781.92"/>
              </g>
              <g>
                <g class="cls-11">
                  <rect class="cls-24" x="232.7" y="95.45" width="901.65" height="1523.15"/>
                </g>
                <ellipse class="cls-25" cx="858.17" cy="857.03" rx="154.09" ry="781.92"/>
              </g>
            </g>
            <path class="cls-47" d="M1710.35,1692.32H297.04c.08-.24.17-.47.26-.69,1.68-4.05,4.19-8.4,7.33-12.92,1.92-2.8,4.09-5.67,6.44-8.56,7.28-8.94,16.35-18.21,25.88-26.88,3.03-2.77,6.11-5.47,9.2-8.08,12.75-10.8,25.53-20.04,35.24-25.59.1-.06.19-.11.29-.16,4.65-2.65,9.42-5.03,14.25-7.25,12.45-5.69,25.4-10.23,38.25-15.04l22.2-8.43,20.12-7.64,6.47-2.45c21.56-8.11,43.14-16.24,64.67-24.47,7.94-3.03,15.86-6.07,23.78-9.14,27.71-10.71,55.33-21.66,82.77-32.98.59-.25,1.17-.49,1.74-.74,8.82-3.74,17.37-7.67,25.87-11.76,5.83-2.81,11.65-5.71,17.5-8.68,2.5-5.02,16.25-16.63,31.61-28.96,5.06-4.06,10.29-8.2,15.36-12.2,12.47-9.86,23.92-18.91,29.16-23.99-.02-4.49-.02-8.99,0-13.48,0-3.33.02-6.67.04-10,.04-10.83.14-21.67.2-32.51.03-3.33.03-6.69.05-10.02.06-10.85.07-21.69-.03-32.52-.02-3.34-.06-6.68-.1-10.01-.12-7.88-.29-15.75-.55-23.62-.09-2.92-.22-5.84-.36-8.78-.16-3.3-.36-6.61-.58-9.91-.69-10.72-1.59-21.44-2.39-32.13-.1-1.24-.19-2.47-.28-3.7-1.53-1.77-3.03-3.52-4.48-5.26-8.07-9.63-14.99-18.85-21.02-27.96-1.95-2.96-3.82-5.9-5.59-8.84-5.87-9.72-10.81-19.41-15.1-29.45-1.3-3.05-2.55-6.14-3.74-9.26-3.71-9.69-6.92-19.77-9.88-30.54-.85-3.11-1.7-6.27-2.51-9.5-2.34-9.16-4.54-18.83-6.79-29.19-5.01.69-10.2,1.05-15.28.63-2.02-.17-4.03-.45-5.99-.89-5.35-1.18-10.02-3.31-14.12-6.2-5.39-3.77-9.82-8.86-13.52-14.84-2.92-4.72-5.54-9.72-8.01-14.83-1.49-3.12-2.93-6.28-4.32-9.45-3.71-8.41-7.18-16.96-10.95-25.09-.9-1.93-1.82-3.85-2.77-5.77-1.57-3.18-3.2-6.34-4.84-9.5-4.9-9.44-9.88-18.86-13.68-28.67-.32-.83-.63-1.66-.92-2.51-1.09-3.09-2.04-6.34-2.86-9.71-2.38-9.81-3.66-20.67-4.04-31.74-.12-3.25-.15-6.52-.11-9.79.13-10.93,1.07-21.83,2.61-31.91.52-3.39,1.1-6.69,1.74-9.87.38-1.84.77-3.64,1.18-5.38,2.4-10.09,6.87-20.78,15.09-27.46,1.18-.96,2.44-1.83,3.77-2.6,9.42-5.5,19.79-4.05,29.8-1.67,1.68.4,3.36.82,5,1.24-.16-.69-.32-1.37-.49-2.06-.76-3.17-1.52-6.36-2.28-9.53-2.46-10.34-4.88-20.68-7.26-31.03-.74-3.18-1.47-6.37-2.18-9.56-2.35-10.36-4.66-20.73-6.91-31.12-.69-3.19-1.38-6.39-2.06-9.59-1.28-5.94-2.51-11.89-3.74-17.84-.84-4.06-1.61-8.63-2.38-13.41-.51-3.17-1.01-6.42-1.53-9.66-1.55-9.66-3.22-19.26-5.44-26.43-.47-1.53-1.02-3.09-1.62-4.68-1.13-3-2.49-6.09-3.99-9.28-4.54-9.62-10.45-19.98-15.99-30.2-1.73-3.17-3.42-6.34-5.03-9.46-5.5-10.75-9.98-21.02-11.27-29.77-.09-.6-.14-1.21-.18-1.84-.17-3.2.43-6.5,1.47-9.77,2.3-7.15,6.77-14.18,10.22-19.81,4.58-7.45,9.41-14.73,14.49-21.83,4.24-5.97,8.66-11.81,13.22-17.54,8.91-11.2,18.39-21.98,28.28-32.34,5.22-5.46,10.56-10.8,16-16.03,4.16-4,8.38-7.95,12.64-11.82-3.75,1.25-7.51,2.49-11.26,3.73-3.49,1.15-6.96,2.31-10.43,3.5-8.36,2.84-16.67,5.84-24.82,9.27,8.78-8.14,17.37-16.21,26.07-24.08,3.05-2.77,6.1-5.5,9.18-8.21,10.21-8.96,20.71-17.62,31.94-25.8.8-.58,1.61-1.16,2.41-1.73,1.95-1.4,3.91-2.78,5.88-4.16,8.85-6.26,17.84-12.36,27.04-18.1,2.79-1.74,5.6-3.46,8.45-5.13.14-.08.3-.18.45-.27,8.43-4.95,17.65-10.07,27.5-15.22,2.85-1.5,5.75-3,8.71-4.5,9.14-4.63,18.75-9.28,28.66-13.85,2.95-1.35,5.92-2.7,8.93-4.04,9.55-4.26,19.37-8.41,29.34-12.39,3.02-1.21,6.07-2.4,9.13-3.58,9.93-3.82,19.98-7.45,30.04-10.8,3.12-1.04,6.25-2.06,9.37-3.06,10.34-3.26,20.68-6.23,30.86-8.81,3.23-.82,6.46-1.6,9.66-2.34,10.89-2.51,21.59-4.54,31.96-6,3.39-.47,6.74-.89,10.05-1.24,10.86-1.15,21.28-1.6,31.11-1.23.84.03,1.68.07,2.52.1,3.55.17,7.11.41,10.66.7,11.79,1,23.58,2.73,35.31,5.1,3.68.74,7.36,1.55,11.03,2.42,12.2,2.89,24.27,6.46,36.12,10.6,3.75,1.31,7.47,2.67,11.17,4.1,12.44,4.79,24.58,10.18,36.31,16.08,3.77,1.9,7.47,3.84,11.15,5.83,1.07.58,2.12,1.16,3.18,1.74,11.32,6.28,23.66,13.28,33.09,22.41.94.91,1.85,1.84,2.72,2.79,3.01,3.28,6.04,7.29,9.01,11.8,13.72,20.83,26.42,52.36,32.62,72.49,1.13-.63,2.23-1.24,3.34-1.84,3.3-1.74,6.53-3.23,9.77-4.39,8.45-3.01,16.95-3.77,26.97-.93,1.65.47,3.28,1.01,4.87,1.61,3.39,1.28,6.67,2.84,9.82,4.65,12.31,7.04,22.77,17.77,31.3,29.46,3.35,4.59,6.4,9.33,9.13,14.05.74,1.25,1.46,2.52,2.15,3.77,11.36,20.67,18.56,43.57,22.65,67.54,2.01,11.72,3.27,23.7,3.92,35.8,2.61,48.94-4.93,99.84-14.4,143.62-2.91,13.44-6.22,26.77-9.71,40.04-3.8,14.48-7.82,28.9-11.75,43.37.76-.12,1.52-.25,2.27-.37,11.94-2.05,23.5-4.76,34.6,1.84.67.39,1.34.82,2.01,1.29,2.12,1.49,3.99,3.26,5.7,5.25,8.95,10.52,12.44,27.27,14.65,41.37.47,3.06.89,5.97,1.29,8.68.37,2.46.74,4.98,1.1,7.51,2.21,15.72,3.95,32.59.89,47.83-2.19,10.85-7.74,23.21-13.97,35.28-5.81,11.26-12.2,22.27-16.98,31.59-5.04,9.83-9.74,20.12-15.06,30-3.72,6.94-7.77,13.67-12.43,19.9-4.79,6.37-10.16,11.72-16.37,15.71-5.65,3.62-11.99,6.12-19.2,7.24-.25.05-.51.08-.77.13-4.47.63-8.93.47-13.43.33-1.16,5.98-2.53,12.66-4.12,19.74-1.37,6.12-2.91,12.54-4.61,19.08-6.77,26.03-16.12,53.81-28.06,71.23-.22.34-.46.68-.69,1-9.4,13.3-21.7,24.3-31.04,37.4-.06.58-.11,1.14-.16,1.72-1,10.86-.58,22.05-.8,32.93l-.15,8.4-.23,12.5-.74,40.14-.04,2.44-.16,9.77-.6,36.07c-.02,1.06-.04,2.12-.08,3.21-.11,3.97-.27,8.01-.3,12.03-.03,4.34.13,8.67.68,12.86.64,4.87,4.31,10.39,7.36,14.21,1.02,1.27,2.08,2.5,3.19,3.71,2.22,2.45,4.6,4.78,7.06,7.07,4.28,3.99,8.78,7.79,13.02,11.62,3.79,3.43,7.56,6.9,11.33,10.37,2.47,2.27,4.94,4.54,7.43,6.79,2.05,1.86,4.11,3.71,6.19,5.53,7.93,4.23,15.92,8.35,23.97,12.36,3.33,1.68,6.69,3.32,10.04,4.94,10.96,5.31,22.03,10.44,33.17,15.4,3.44,1.55,6.9,3.06,10.36,4.58,11.29,4.92,22.66,9.68,34.09,14.33,3.52,1.44,7.05,2.86,10.59,4.27,11.49,4.6,23.04,9.08,34.61,13.49,3.56,1.35,7.13,2.7,10.7,4.04,11.6,4.36,23.21,8.65,34.81,12.9,3.57,1.3,7.13,2.61,10.71,3.9,6.02,2.19,12.03,4.38,18.03,6.55l16.73,5.95,10.7,3.8,25.13,8.94c3.17,1.1,6.34,2.18,9.5,3.28,3.55,1.23,7.11,2.45,10.63,3.71,11.2,3.98,22.22,8.2,32.98,13.32,3.15,1.5,6.27,3.08,9.38,4.75.49.27.96.52,1.46.8,7.29,4.02,16.37,10.08,25.91,17.36,2.58,1.95,5.19,4.01,7.8,6.14,8.14,6.58,16.34,13.85,23.85,21.32,2.34,2.34,4.61,4.68,6.8,7.04,10.49,11.33,18.85,22.73,22.4,32.53Z"/>
            <g>
              <polygon class="cls-33" points="1409.89 302.58 1427.99 320.68 1525.62 320.68 1525.62 411.27 1543.72 429.36 1543.72 302.58 1409.89 302.58"/>
              <polygon class="cls-33" points="598.99 302.58 580.89 320.68 483.27 320.68 483.27 411.27 465.17 429.36 465.17 302.58 598.99 302.58"/>
              <polygon class="cls-33" points="468.69 1250.23 486.79 1268.33 486.79 1365.96 577.38 1365.96 595.48 1384.05 468.69 1384.05 468.69 1250.23"/>
            </g>
            <g class="cls-75">
              <g>
                <path class="cls-43" d="M1681.14,1652.74c-14.75,13.46-29.76,26.67-44.99,39.57h15.08c12.41-10.65,24.64-21.5,36.71-32.53-2.19-2.36-4.47-4.71-6.8-7.04Z"/>
                <path class="cls-64" d="M1649.49,1625.29c-25.54,23.18-51.86,45.54-78.89,67.03h15.64c24.29-19.6,47.99-39.92,71.05-60.89-2.61-2.12-5.22-4.18-7.8-6.14Z"/>
                <path class="cls-59" d="M1612.75,1602.39c-35.4,31.63-72.27,61.65-110.5,89.93h16.36c35.74-26.9,70.28-55.33,103.52-85.18-3.11-1.67-6.23-3.25-9.38-4.75Z"/>
                <path class="cls-52" d="M1569.14,1585.36c-44.06,38.26-90.38,73.99-138.72,106.95h17.26c45.96-31.98,90.06-66.46,132.09-103.25-3.52-1.25-7.07-2.48-10.63-3.71Z"/>
                <path class="cls-60" d="M1523.81,1569.35c-53.42,44.9-110.12,86.03-169.66,122.97h18.42c56.74-36.04,110.83-75.89,161.94-119.17l-10.7-3.8Z"/>
                <path class="cls-14" d="M1478.34,1552.95c-64.37,52.25-133.41,98.96-206.39,139.37h19.98c69.58-39.66,135.49-85.03,197.12-135.47-3.57-1.29-7.13-2.6-10.71-3.9Z"/>
                <path class="cls-61" d="M1432.83,1536.01c-77.6,60.7-161.88,113.24-251.54,156.3h22.29c85.37-42.54,165.72-93.67,239.94-152.27-3.56-1.34-7.13-2.68-10.7-4.04Z"/>
                <path class="cls-15" d="M1387.63,1518.25c-94.43,71.11-198.61,129.93-310.14,174.07h26.03c105.74-44.09,204.67-101.38,294.7-169.79-3.54-1.41-7.07-2.84-10.59-4.27Z"/>
                <path class="cls-3" d="M1343.18,1499.34c-117.93,85.41-250.85,151.32-394,192.97h33.62c134.34-42.79,259.26-106.92,370.74-188.39-3.46-1.51-6.91-3.03-10.36-4.58Z"/>
                <path class="cls-53" d="M1299.97,1479c-161.94,112.77-351.79,188.08-556.92,213.32-50.13,6.18-101.17,9.35-152.95,9.35s-102.82-3.17-152.94-9.35c-42.73-5.26-84.79-12.68-126.09-22.17-2.35,2.89-4.52,5.76-6.44,8.56,21.93,5.12,44.07,9.67,66.43,13.61,71.15,12.58,144.34,19.14,219.04,19.14s147.9-6.56,219.05-19.14c183.76-32.47,353.85-105.07,500.86-208.37-3.35-1.62-6.7-3.27-10.04-4.94Z"/>
                <path class="cls-2" d="M1262.39,1454.33c-192.08,129.83-423.49,205.71-672.29,205.71-83.55,0-165.15-8.56-243.95-24.86-3.09,2.62-6.17,5.31-9.2,8.08,81.68,17.41,166.36,26.57,253.15,26.57,251.67,0,485.68-77.01,679.72-208.71-2.49-2.25-4.96-4.52-7.43-6.79Z"/>
                <path class="cls-72" d="M1230.98,1425.28c-183.82,122.01-404.2,193.14-640.88,193.14-66.15,0-131.02-5.56-194.17-16.24-4.83,2.23-9.6,4.6-14.25,7.25-.1.05-.19.1-.29.16,67.75,12.24,137.51,18.62,208.71,18.62,239.38,0,462.24-72.16,647.94-195.87-2.45-2.28-4.84-4.62-7.06-7.07Z"/>
                <path class="cls-57" d="M590.1,1576.79c-38.34,0-76.23-1.94-113.6-5.72l-20.12,7.64c43.86,5.2,88.49,7.87,133.72,7.87,232.92,0,449.61-70.83,629.65-192.07.03-4.02.19-8.06.3-12.03-179.61,122.58-396.56,194.31-629.95,194.31Z"/>
                <path class="cls-76" d="M590.1,1535.16c-6.24,0-12.47-.05-18.68-.16-7.92,3.07-15.84,6.11-23.78,9.14,14.09.54,28.24.82,42.46.82,234.86,0,452.59-74.77,630.62-201.76l.16-9.77.04-2.44c-177.51,128.41-395.49,204.16-630.83,204.16Z"/>
                <path class="cls-63" d="M681.81,1489.52c-8.51,4.1-17.05,8.02-25.87,11.76,211.65-13.19,406.46-89.56,565.74-210.42l.23-12.5c-152.28,117.34-337.96,193.37-540.1,211.16Z"/>
                <path class="cls-55" d="M746.28,1439.67c-5.07,4-10.3,8.14-15.36,12.2,184.75-26.01,353.52-102.42,491.94-214.85.05-.58.1-1.14.16-1.72,9.34-13.1,21.64-24.09,31.04-37.4.23-.32.47-.66.69-1-139.66,125.49-314.87,212.13-508.47,242.76Z"/>
                <path class="cls-66" d="M1305.74,1086.4c-6.01,6.82-12.12,13.55-18.32,20.19-134.04,143.68-311.85,246.04-511.94,285.6-.03,3.33-.03,6.67-.04,10,197.14-38.57,372.94-137.42,507.37-276.52,14.54-15.05,28.6-30.56,42.14-46.52,9.88-11.64,19.48-23.51,28.8-35.6,5.31-9.88,10.01-20.17,15.06-30,4.78-9.33,11.17-20.34,16.98-31.59-24.3,36.66-51.06,71.55-80.03,104.44Z"/>
                <path class="cls-45" d="M1397.76,891.34c-.4-2.71-.81-5.63-1.29-8.68-125.36,236.23-351.52,411.14-620.74,467.01-.02,3.33-.03,6.69-.05,10.02,268.58-55.1,494.96-227.37,623.18-460.84-.36-2.53-.73-5.04-1.1-7.51Z"/>
                <path class="cls-73" d="M1376.13,836.05c-.67-.47-1.34-.91-2.01-1.29-114.97,237.32-334.58,414.9-598.52,472.38.04,3.33.08,6.67.1,10.01,266.94-57.51,489.27-236.42,606.12-475.85-1.7-1.99-3.58-3.76-5.7-5.25Z"/>
                <path class="cls-46" d="M1349.01,789.91c-104.57,237.07-317.07,416.26-574.89,474.92.22,3.3.41,6.61.58,9.91,247.22-55.74,453.44-220.96,564.83-441.83-.74.12-1.51.25-2.27.37,3.93-14.47,7.95-28.89,11.75-43.37Z"/>
                <path class="cls-13" d="M1369.19,570.44c-46.87,321.85-289.17,581.18-602.22,653.3,1.45,1.73,2.95,3.49,4.48,5.26.09,1.23.18,2.46.28,3.7,304.5-71.22,542.41-317.5,601.38-626.46-.64-12.1-1.91-24.08-3.92-35.8Z"/>
                <path class="cls-31" d="M1335.26,485.08c-13.16,346.99-264.54,634.03-594.91,701.87,1.78,2.95,3.64,5.88,5.59,8.84,328.58-69.18,579.21-352.54,598.45-696.66-2.73-4.72-5.78-9.46-9.13-14.05Z"/>
                <path class="cls-17" d="M1294.15,450.97c.02,1.83.03,3.66.03,5.48,0,343.33-247.02,630.06-572.66,691.78,1.19,3.12,2.44,6.21,3.74,9.26,329.23-63.35,578.71-353.61,578.71-701.04v-.84c-3.15-1.8-6.42-3.37-9.82-4.65Z"/>
                <path class="cls-4" d="M1262.31,450.3c-3.24,1.16-6.47,2.65-9.77,4.39,0,.59,0,1.18,0,1.77,0,324.66-234.75,595.51-543.43,651.74.81,3.22,1.66,6.39,2.51,9.5,312.87-57.35,550.72-332.03,550.72-661.23,0-2.06,0-4.11-.03-6.16Z"/>
                <path class="cls-54" d="M1216.58,384.03c-2.97-4.51-6-8.52-9.01-11.8-.87-.96-1.79-1.89-2.72-2.79,4.01,28.44,6.08,57.49,6.08,87.02,0,316.32-237.79,578.14-544,616.08,4.1,2.89,8.78,5.03,14.12,6.2,1.96.44,3.97.72,5.99.89,301.86-46.77,533.67-308.41,533.67-623.18,0-24.48-1.4-48.64-4.14-72.43Z"/>
                <path class="cls-36" d="M1168.57,345.29c-3.67-1.99-7.38-3.94-11.15-5.83,7.79,37.8,11.87,76.94,11.87,117,0,302.19-232.63,551.08-528.21,576.97,1.4,3.17,2.84,6.33,4.32,9.45,298.95-27.97,533.69-280.3,533.69-586.42,0-37.99-3.62-75.16-10.53-111.17Z"/>
                <path class="cls-74" d="M1121.11,323.38c-3.7-1.42-7.42-2.78-11.17-4.1,11.57,43.8,17.74,89.79,17.74,137.18,0,285.53-223.77,519.79-505.15,536.6,1.64,3.17,3.27,6.32,4.84,9.5,284.51-19.21,510.1-256.8,510.1-546.1,0-45.88-5.67-90.45-16.36-133.08Z"/>
                <path class="cls-70" d="M1073.82,308.68c-3.66-.87-7.35-1.68-11.03-2.42,15.11,47.4,23.26,97.87,23.26,150.2,0,268.47-214.42,487.79-480.98,495.72.82,3.37,1.77,6.62,2.86,9.71,270.64-9.41,487.91-232.52,487.91-505.42,0-51.4-7.7-101.02-22.02-147.78Z"/>
                <path class="cls-50" d="M1027.48,301.15c-3.55-.3-7.12-.53-10.66-.7,17.85,48.67,27.6,101.23,27.6,156.01,0,246.9-197.96,448.43-443.5,454.19-.04,3.27,0,6.54.11,9.79,250.88-5.81,453.19-211.72,453.19-463.98,0-54.43-9.42-106.73-26.73-155.3Z"/>
                <path class="cls-42" d="M983.19,301.58c-3.31.36-6.67.77-10.05,1.24,19.13,47.51,29.66,99.37,29.66,153.64,0,222.49-176.97,404.42-397.53,412.42-.64,3.17-1.23,6.47-1.74,9.87,226.77-7.12,409.06-193.81,409.06-422.28,0-54.65-10.42-106.9-29.4-154.88Z"/>
                <path class="cls-35" d="M941.18,308.82c-3.2.74-6.42,1.51-9.66,2.34,19.08,44.64,29.65,93.76,29.65,145.3,0,181.66-131.21,333.24-303.83,364.96.75,3.17,1.51,6.36,2.28,9.53,176.93-32.75,311.35-188.22,311.35-374.49,0-52.32-10.6-102.21-29.79-147.64ZM625.31,833.43c-1.33.77-2.59,1.64-3.77,2.6,11.34-.92,22.53-2.35,33.56-4.27-10-2.39-20.38-3.83-29.8,1.67Z"/>
                <path class="cls-65" d="M900.66,319.97c-3.12,1-6.25,2.01-9.37,3.06,18.16,40.81,28.26,85.97,28.26,133.44,0,161.95-117.46,296.97-271.65,324.37.71,3.19,1.45,6.38,2.18,9.56,158.55-28.4,279.26-167.34,279.26-333.93,0-48.53-10.24-94.71-28.68-136.49Z"/>
                <path class="cls-18" d="M861.25,333.82c-3.06,1.18-6.11,2.37-9.13,3.58,16.56,36.31,25.8,76.62,25.8,119.06,0,142.06-103.46,260.42-238.99,283.66.68,3.2,1.36,6.4,2.06,9.59,139.95-24.2,246.72-146.49,246.72-293.25,0-43.69-9.46-85.22-26.46-122.64Z"/>
                <path class="cls-44" d="M822.78,349.79c-3,1.34-5.98,2.68-8.93,4.04,14.4,31.26,22.44,66.02,22.44,102.63,0,121.72-88.79,223.1-205.01,242.75.52,3.24,1.02,6.5,1.53,9.66,120.89-20.39,213.27-125.81,213.27-252.42,0-38.04-8.34-74.17-23.31-106.67Z"/>
                <path class="cls-21" d="M785.19,367.67c-2.95,1.51-5.86,3-8.71,4.5,11.68,25.71,18.19,54.25,18.19,84.28,0,102.57-75.87,187.74-174.45,202.36,1.51,3.19,2.86,6.29,3.99,9.28,102.04-16.38,180.24-105.04,180.24-211.64,0-31.65-6.9-61.72-19.27-88.78Z"/>
                <path class="cls-16" d="M748.54,387.67c-2.84,1.67-5.65,3.39-8.45,5.13,8.33,19.57,12.95,41.09,12.95,63.66,0,86.8-68.2,157.95-153.83,162.69,1.61,3.12,3.29,6.29,5.03,9.46,88.66-7.2,158.6-81.67,158.6-172.15,0-24.43-5.1-47.7-14.3-68.79Z"/>
                <path class="cls-71" d="M713.05,410.9c-1.97,1.38-3.93,2.77-5.88,4.16-.8.58-1.62,1.16-2.41,1.73,4.32,12.43,6.66,25.78,6.66,39.66,0,66.9-54.43,121.32-121.32,121.32-.29,0-.58,0-.87,0-1.04,3.28-1.64,6.58-1.47,9.77.78.02,1.57.03,2.34.03,72.29,0,131.11-58.82,131.11-131.11,0-16.01-2.89-31.36-8.16-45.56Z"/>
                <path class="cls-6" d="M672.82,442.6c-3.08,2.71-6.14,5.44-9.18,8.21.06,4.23-.24,8.5-.91,12.77-.11.69-.22,1.36-.35,2.04-1.34,7.26-3.69,14.16-6.94,20.62-6.34,12.64-16.09,23.59-28.28,32.34-4.56,5.73-8.98,11.57-13.22,17.54,29.48-13.57,51.08-36.91,57.5-65.9.38-1.69.7-3.4.97-5.13.15-.99.29-1.97.41-2.96.78-6.56.76-13.09,0-19.52Z"/>
              </g>
            </g>
            <polygon class="cls-33" points="1520.29 1334.09 1383.83 1226 1370.89 1238.87 1487.79 1366.59 1473.25 1381.12 1534.83 1381.12 1534.83 1319.55 1520.29 1334.09"/>
            <path class="cls-12" d="M1246.35,921.83c-102.21,0-185.36,83.15-185.36,185.36s83.15,185.36,185.36,185.36,185.36-83.15,185.36-185.36-83.15-185.36-185.36-185.36ZM1246.35,1276.46c-93.34,0-169.28-75.94-169.28-169.28s75.94-169.28,169.28-169.28,169.28,75.94,169.28,169.28-75.94,169.28-169.28,169.28ZM1246.35,921.83c-102.21,0-185.36,83.15-185.36,185.36s83.15,185.36,185.36,185.36,185.36-83.15,185.36-185.36-83.15-185.36-185.36-185.36ZM1246.35,1276.46c-93.34,0-169.28-75.94-169.28-169.28s75.94-169.28,169.28-169.28,169.28,75.94,169.28,169.28-75.94,169.28-169.28,169.28ZM1401.15,952.39c-41.34-41.34-96.32-64.11-154.8-64.11s-113.45,22.77-154.79,64.11c-41.34,41.35-64.12,96.33-64.12,154.8s22.77,113.44,64.12,154.79c41.35,41.34,96.32,64.12,154.79,64.12s113.45-22.77,154.8-64.12c41.34-41.35,64.12-96.32,64.12-154.79s-22.77-113.45-64.12-154.8ZM1389.77,1250.59c-38.31,38.31-89.24,59.41-143.42,59.41s-105.11-21.1-143.41-59.41c-38.31-38.31-59.41-89.24-59.41-143.41s21.1-105.11,59.41-143.42c38.3-38.3,89.23-59.4,143.41-59.4s105.12,21.1,143.42,59.4c38.31,38.3,59.41,89.24,59.41,143.42s-21.1,105.1-59.41,143.41ZM1246.35,921.83c-102.21,0-185.36,83.15-185.36,185.36s83.15,185.36,185.36,185.36,185.36-83.15,185.36-185.36-83.15-185.36-185.36-185.36ZM1246.35,1276.46c-93.34,0-169.28-75.94-169.28-169.28s75.94-169.28,169.28-169.28,169.28,75.94,169.28,169.28-75.94,169.28-169.28,169.28Z"/>
            <path class="cls-62" d="M1389.77,963.76c-38.3-38.3-89.23-59.4-143.42-59.4s-105.11,21.1-143.41,59.4c-38.31,38.31-59.41,89.24-59.41,143.42s21.1,105.1,59.41,143.41c38.3,38.31,89.24,59.41,143.41,59.41s105.11-21.1,143.42-59.41c38.31-38.31,59.41-89.24,59.41-143.41s-21.1-105.12-59.41-143.42ZM1246.35,1292.54c-102.21,0-185.36-83.15-185.36-185.36s83.15-185.36,185.36-185.36,185.36,83.15,185.36,185.36-83.15,185.36-185.36,185.36Z"/>
            <g>
              <g class="cls-1">
                <g class="cls-26">
                  <g class="cls-38">
                    <path class="cls-56" d="M1440.42,840.4c-9.37-40.5-125.85-48.15-260.06-17.11-133.91,30.97-235.2,89-225.84,129.5,9.37,40.51,125.85,48.15,259.76,17.18,134.21-31.04,235.51-89.06,226.14-129.57Z"/>
                  </g>
                </g>
              </g>
              <g class="cls-26">
                <g class="cls-68">
                  <path class="cls-34" d="M1512.88,823.64c-12.16-52.58-163.39-62.51-337.63-22.21-173.85,40.21-305.35,115.54-293.19,168.12,12.17,52.59,163.39,62.51,337.24,22.3,174.24-40.3,305.75-115.62,293.58-168.21Z"/>
                </g>
              </g>
            </g>
          </g>
          <g>
            <path class="cls-40" d="M359.45,1733.1v25.98h-69.68v46.29h67.31v25.98h-67.31v67.08h-27.16v-165.33h96.84Z"/>
            <path class="cls-67" d="M476.84,1797.11v-16.77h25.51v118.1h-25.51v-17.01c-9.61,13.39-23.38,20.08-41.33,20.08-16.22,0-30.08-5.98-41.57-17.95-11.5-11.96-17.24-26.69-17.24-44.17s5.75-32.2,17.24-44.17c11.49-11.96,25.35-17.95,41.57-17.95,17.95,0,31.73,6.61,41.33,19.84ZM412.83,1866.55c7.09,7.09,15.98,10.63,26.69,10.63s19.6-3.54,26.69-10.63c7.09-7.24,10.63-16.3,10.63-27.16s-3.54-19.84-10.63-26.93c-7.09-7.24-15.98-10.87-26.69-10.87s-19.6,3.62-26.69,10.87c-7.09,7.09-10.63,16.06-10.63,26.93s3.54,19.76,10.63,27.16Z"/>
            <path class="cls-7" d="M587.85,1901.5c-17.8,0-32.68-5.98-44.64-17.95-11.81-12.12-17.71-26.84-17.71-44.17s5.9-32.36,17.71-44.17c11.96-11.96,26.84-17.95,44.64-17.95,11.49,0,21.97,2.76,31.41,8.27,9.45,5.51,16.53,12.91,21.26,22.2l-21.97,12.75c-2.68-5.67-6.73-10.12-12.16-13.34-5.43-3.23-11.69-4.84-18.78-4.84-10.39,0-19.13,3.54-26.22,10.63-6.93,7.24-10.39,16.06-10.39,26.45s3.46,19.21,10.39,26.45c7.09,7.09,15.82,10.63,26.22,10.63,6.93,0,13.19-1.61,18.78-4.84,5.59-3.23,9.8-7.68,12.64-13.34l21.97,12.52c-5.04,9.45-12.32,16.93-21.85,22.44-9.53,5.51-19.96,8.27-31.3,8.27Z"/>
            <path class="cls-30" d="M771.6,1850.25h-94c1.89,8.82,6.18,15.67,12.87,20.55,6.69,4.88,15,7.32,24.92,7.32,13.38,0,23.54-4.88,30.47-14.64l21.02,12.28c-11.5,17.16-28.74,25.74-51.73,25.74-19.05,0-34.57-5.82-46.53-17.48-11.81-11.81-17.71-26.69-17.71-44.64s5.82-32.2,17.48-44.17c11.49-11.96,26.45-17.95,44.88-17.95,17.16,0,31.33,6.06,42.51,18.19,11.18,12.13,16.77,26.85,16.77,44.17,0,3.15-.32,6.69-.94,10.63ZM677.36,1829.46h69.44c-1.73-9.29-5.63-16.45-11.69-21.49-6.06-5.04-13.43-7.56-22.08-7.56-9.45,0-17.32,2.6-23.62,7.79-6.3,5.2-10.31,12.28-12.05,21.26Z"/>
            <path class="cls-69" d="M846.95,1901.5c-15.91,0-29.41-3.58-40.51-10.75-11.1-7.16-18.86-17.12-23.26-29.88l23.38-13.7c6.61,18.58,20.31,27.87,41.1,27.87,10.07,0,17.71-1.97,22.91-5.9,5.2-3.93,7.79-9.21,7.79-15.82s-2.76-11.73-8.27-15.35c-5.51-3.62-15.27-7.56-29.29-11.81-14.33-4.25-25.9-9.29-34.72-15.12-10.71-7.56-16.06-18.66-16.06-33.3s5.2-26.22,15.59-34.72c10.23-8.66,22.75-12.99,37.55-12.99,13.07,0,24.6,3.19,34.6,9.57,10,6.38,17.67,15.32,23.03,26.81l-22.91,13.23c-6.93-15.43-18.5-23.15-34.72-23.15-7.88,0-14.17,1.85-18.9,5.55-4.72,3.7-7.09,8.7-7.09,15s2.36,10.98,7.09,14.53c4.72,3.54,13.46,7.29,26.22,11.22,7.87,2.68,12.44,4.25,13.7,4.72,2.04.63,6.14,2.21,12.28,4.72,5.04,2.05,9.05,4.25,12.05,6.61,12.28,9.61,17.95,20.94,17.01,34.01,0,14.96-5.43,26.85-16.3,35.67-10.55,8.66-24.64,12.99-42.28,12.99Z"/>
            <path class="cls-41" d="M1044.64,1850.25h-94c1.89,8.82,6.18,15.67,12.87,20.55,6.69,4.88,15,7.32,24.92,7.32,13.38,0,23.54-4.88,30.47-14.64l21.02,12.28c-11.5,17.16-28.74,25.74-51.73,25.74-19.05,0-34.57-5.82-46.53-17.48-11.81-11.81-17.71-26.69-17.71-44.64s5.82-32.2,17.48-44.17c11.49-11.96,26.45-17.95,44.88-17.95,17.16,0,31.33,6.06,42.51,18.19,11.18,12.13,16.77,26.85,16.77,44.17,0,3.15-.32,6.69-.94,10.63ZM950.4,1829.46h69.44c-1.73-9.29-5.63-16.45-11.69-21.49-6.06-5.04-13.43-7.56-22.08-7.56-9.45,0-17.32,2.6-23.62,7.79-6.3,5.2-10.31,12.28-12.05,21.26Z"/>
            <path class="cls-58" d="M1160.85,1797.11v-16.77h25.51v118.1h-25.51v-17.01c-9.61,13.39-23.38,20.08-41.33,20.08-16.22,0-30.08-5.98-41.57-17.95-11.5-11.96-17.24-26.69-17.24-44.17s5.75-32.2,17.24-44.17c11.49-11.96,25.35-17.95,41.57-17.95,17.95,0,31.73,6.61,41.33,19.84ZM1096.84,1866.55c7.09,7.09,15.98,10.63,26.69,10.63s19.6-3.54,26.69-10.63c7.09-7.24,10.63-16.3,10.63-27.16s-3.54-19.84-10.63-26.93c-7.09-7.24-15.98-10.87-26.69-10.87s-19.6,3.62-26.69,10.87c-7.09,7.09-10.63,16.06-10.63,26.93s3.54,19.76,10.63,27.16Z"/>
            <path class="cls-51" d="M1241.62,1780.34v19.84c6.45-14.64,18.58-21.97,36.37-21.97v27.63c-9.61-.63-18.11,1.74-25.51,7.09-7.24,5.2-10.86,13.86-10.86,25.98v59.52h-25.51v-118.1h25.51Z"/>
            <path class="cls-22" d="M1347.2,1901.5c-17.8,0-32.68-5.98-44.64-17.95-11.81-12.12-17.71-26.84-17.71-44.17s5.9-32.36,17.71-44.17c11.96-11.96,26.84-17.95,44.64-17.95,11.49,0,21.97,2.76,31.41,8.27,9.45,5.51,16.53,12.91,21.26,22.2l-21.97,12.75c-2.68-5.67-6.73-10.12-12.16-13.34-5.43-3.23-11.69-4.84-18.78-4.84-10.39,0-19.13,3.54-26.22,10.63-6.93,7.24-10.39,16.06-10.39,26.45s3.46,19.21,10.39,26.45c7.09,7.09,15.82,10.63,26.22,10.63,6.93,0,13.19-1.61,18.78-4.84,5.59-3.23,9.8-7.68,12.64-13.34l21.97,12.52c-5.04,9.45-12.32,16.93-21.85,22.44-9.53,5.51-19.96,8.27-31.3,8.27Z"/>
            <path class="cls-5" d="M1480.88,1777.27c13.7,0,24.68,4.37,32.95,13.11,8.27,8.74,12.4,20.59,12.4,35.55v72.51h-25.51v-69.91c0-8.82-2.36-15.59-7.09-20.31-4.72-4.72-11.18-7.09-19.37-7.09-9.29,0-16.61,2.88-21.97,8.62-5.36,5.75-8.03,14.21-8.03,25.39v63.3h-25.51v-165.33h25.51v62.35c7.87-12.12,20.08-18.19,36.61-18.19Z"/>
            <path class="cls-48" d="M1692.28,1898.43h-29.29l-11.57-33.3h-70.38l-11.57,33.3h-29.52l59.99-165.33h32.59l59.76,165.33ZM1616.22,1764.98l-26.22,74.64h52.43l-26.22-74.64Z"/>
            <path class="cls-19" d="M1733.84,1898.43h-25.51v-165.33h25.51v165.33Z"/>
          </g>
        </g>
      </g>
    </g>
  </g>
</svg>